<?xml version="1.0" encoding="iso-8859-1"?>
<!-- Generator: Adobe Illustrator 19.0.0, SVG Export Plug-In . SVG Version: 6.00 Build 0)  -->
<svg version="1.1" id="Layer_1" xmlns="http://www.w3.org/2000/svg" xmlns:xlink="http://www.w3.org/1999/xlink" x="0px" y="0px"
	 viewBox="0 0 512 512" style="enable-background:new 0 0 512 512;" xml:space="preserve">
<circle style="fill:#E6E5E5;" cx="256" cy="256" r="256"/>
<rect x="127.504" y="83.888" style="fill:#FFFFFF;" width="258" height="344"/>
<g>
	<rect x="127.528" y="83.896" style="fill:#232323;" width="258" height="41.4"/>
	<rect x="167.064" y="331.656" style="fill:#232323;" width="178.904" height="7.168"/>
</g>
<g>
	<rect x="167.064" y="353.12" style="fill:#D8D8D8;" width="178.904" height="7.168"/>
	<rect x="167.064" y="367.488" style="fill:#D8D8D8;" width="178.904" height="7.168"/>
	<rect x="167.064" y="381.824" style="fill:#D8D8D8;" width="178.904" height="7.168"/>
</g>
<rect x="167.064" y="247.928" style="fill:#232323;" width="178.904" height="7.168"/>
<g>
	<rect x="167.064" y="269.424" style="fill:#D8D8D8;" width="178.904" height="7.168"/>
	<rect x="167.064" y="283.76" style="fill:#D8D8D8;" width="178.904" height="7.168"/>
	<rect x="167.064" y="298.08" style="fill:#D8D8D8;" width="178.904" height="7.168"/>
</g>
<rect x="167.064" y="164.2" style="fill:#232323;" width="178.904" height="7.168"/>
<g>
	<rect x="167.064" y="185.68" style="fill:#D8D8D8;" width="178.904" height="7.168"/>
	<rect x="167.064" y="200" style="fill:#D8D8D8;" width="178.904" height="7.168"/>
	<rect x="167.064" y="214.368" style="fill:#D8D8D8;" width="178.904" height="7.168"/>
</g>
<polygon style="fill:#FFFFFF;" points="358.56,115.848 214.64,115.848 203.856,94.344 358.56,94.344 "/>
<g>
	<rect x="334.52" y="94.344" style="fill:#DB2B42;" width="24" height="21.504"/>
	<circle style="fill:#DB2B42;" cx="149.416" cy="105.16" r="5.824"/>
</g>
<circle style="fill:#8AD5DD;" cx="164.856" cy="105.16" r="5.824"/>
<circle style="fill:#CCCBCA;" cx="180.304" cy="105.16" r="5.824"/>
<g>
	<path style="fill:#232323;" d="M223.368,100.584l0.92,4.016c0.2,0.944,0.4,1.904,0.568,2.864h0.04
		c0.184-0.96,0.472-1.944,0.728-2.848l1.144-4.032h1.816l1.112,3.928c0.272,1.032,0.504,2,0.704,2.96h0.04
		c0.144-0.96,0.344-1.928,0.576-2.96l0.984-3.928h2.192l-2.776,8.848h-2.072l-1.048-3.6c-0.272-0.92-0.472-1.76-0.672-2.832h-0.04
		c-0.184,1.088-0.416,1.96-0.672,2.832l-1.128,3.6h-2.088l-2.616-8.848H223.368z"/>
	<path style="fill:#232323;" d="M237.264,100.584l0.92,4.016c0.2,0.944,0.4,1.904,0.568,2.864h0.04
		c0.184-0.96,0.472-1.944,0.728-2.848l1.144-4.032h1.816l1.112,3.928c0.272,1.032,0.504,2,0.704,2.96h0.04
		c0.144-0.96,0.344-1.928,0.576-2.96l0.984-3.928h2.192l-2.776,8.848h-2.072l-1.048-3.6c-0.272-0.92-0.472-1.76-0.672-2.832h-0.04
		c-0.184,1.088-0.416,1.96-0.672,2.832l-1.128,3.6h-2.088l-2.616-8.848H237.264z"/>
	<path style="fill:#232323;" d="M251.16,100.584l0.92,4.016c0.2,0.944,0.4,1.904,0.568,2.864h0.04
		c0.184-0.96,0.472-1.944,0.728-2.848l1.144-4.032h1.816l1.112,3.928c0.272,1.032,0.504,2,0.704,2.96h0.04
		c0.144-0.96,0.344-1.928,0.576-2.96l0.984-3.928h2.192l-2.776,8.848h-2.072l-1.048-3.6c-0.272-0.92-0.472-1.76-0.672-2.832h-0.04
		c-0.184,1.088-0.416,1.96-0.672,2.832l-1.128,3.6h-2.088l-2.616-8.848H251.16z"/>
	<path style="fill:#232323;" d="M262.344,108.192c0-0.84,0.576-1.432,1.376-1.432c0.816,0,1.376,0.576,1.376,1.432
		c0,0.816-0.544,1.432-1.376,1.432C262.912,109.632,262.344,109.008,262.344,108.192z"/>
</g>
<g>
	<polygon style="fill:#FFFFFF;" points="347.976,111.688 346.528,110.272 351.536,105.128 346.232,99.944 347.64,98.504 
		354.4,105.08 	"/>
	<rect x="338.48" y="104.08" style="fill:#FFFFFF;" width="13.376" height="2.024"/>
</g>
<polygon style="fill:#CCCBCA;" points="320.864,108.984 326.256,102.48 315.48,102.48 "/>
<g>
</g>
<g>
</g>
<g>
</g>
<g>
</g>
<g>
</g>
<g>
</g>
<g>
</g>
<g>
</g>
<g>
</g>
<g>
</g>
<g>
</g>
<g>
</g>
<g>
</g>
<g>
</g>
<g>
</g>
</svg>
